<svg version="1.0" class="amicitialogo" xmlns="http://www.w3.org/2000/svg"
 width="500.000000pt" height="500.000000pt" viewBox="0 0 500.000000 500.000000"
 preserveAspectRatio="xMidYMid meet">
  <metadata>
  </metadata>
  <g transform="translate(0.000000,500.000000) scale(0.100000,-0.100000)"
  fill="#ffffff" stroke="none">
    <path d="M2256 4489 c-926 -119 -1651 -850 -1766 -1779 -15 -125 -12 -405 5
-529 65 -450 258 -836 579 -1157 67 -66 164 -152 216 -191 136 -100 310 -203
343 -203 14 0 48 114 141 481 l43 166 -143 246 c-78 136 -141 247 -139 247 15
0 424 113 442 122 12 6 20 14 18 18 -2 4 30 132 71 286 41 153 120 445 174
647 l99 369 -143 246 c-121 208 -141 248 -126 254 9 3 113 32 232 63 210 56
215 58 215 84 1 14 37 160 82 324 44 165 78 303 75 308 -7 11 -325 9 -418 -2z"/>
    <path d="M3135 3840 c-4 -16 -4 -34 -1 -39 3 -4 -39 -249 -94 -542 -55 -294
-100 -546 -100 -561 l0 -28 210 0 210 0 0 28 c0 15 -45 267 -100 561 -55 293
-97 538 -94 542 8 13 -6 69 -16 69 -5 0 -11 -13 -15 -30z"/>
    <path d="M2806 2008 c-180 -966 -256 -1368 -261 -1390 l-7 -28 606 0 606 0 0
23 c0 13 -56 324 -125 693 -69 368 -128 684 -131 702 l-6 32 -338 0 -338 0 -6
-32z"/>
  </g>
</svg>