<?xml version="1.0" encoding="UTF-8" standalone="no"?>
<svg
   xmlns:dc="http://purl.org/dc/elements/1.1/"
   xmlns:cc="http://creativecommons.org/ns#"
   xmlns:rdf="http://www.w3.org/1999/02/22-rdf-syntax-ns#"
   xmlns:svg="http://www.w3.org/2000/svg"
   xmlns="http://www.w3.org/2000/svg"
   xmlns:sodipodi="http://sodipodi.sourceforge.net/DTD/sodipodi-0.dtd"
   xmlns:inkscape="http://www.inkscape.org/namespaces/inkscape"
   version="1.0"
   width="256.000000pt"
   height="256.000000pt"
   viewBox="0 0 256.000000 256.000000"
   preserveAspectRatio="xMidYMid meet"
   id="svg2"
   inkscape:version="0.91 r13725"
   sodipodi:docname="logo.svg">
  <defs
     id="defs12" />
  <sodipodi:namedview
     pagecolor="#ffffff"
     bordercolor="#666666"
     borderopacity="1"
     objecttolerance="10"
     gridtolerance="10"
     guidetolerance="10"
     inkscape:pageopacity="0"
     inkscape:pageshadow="2"
     inkscape:window-width="1366"
     inkscape:window-height="705"
     id="namedview10"
     showgrid="false"
     inkscape:zoom="1.2049947"
     inkscape:cx="64.897645"
     inkscape:cy="202.83163"
     inkscape:window-x="-8"
     inkscape:window-y="-8"
     inkscape:window-maximized="1"
     inkscape:current-layer="svg2" />
  <metadata
     id="metadata4">
Created by potrace 1.13, written by Peter Selinger 2001-2015
<rdf:RDF>
  <cc:Work
     rdf:about="">
    <dc:format>image/svg+xml</dc:format>
    <dc:type
       rdf:resource="http://purl.org/dc/dcmitype/StillImage" />
    <dc:title></dc:title>
  </cc:Work>
</rdf:RDF>
</metadata>
  <path
     style="opacity:1;fill:#009FFF"
     d="m 91.649748,230.9228 c -0.62172,-1.40581 -2.3315,-5.68368 -3.79951,-9.50638 C 83.043107,208.89873 76.66677,195.27749 74.171805,192.19633 l -0.860367,-1.0625 -3.971246,4.17426 c -4.202287,4.41712 -13.076663,15.23713 -18.600763,22.67884 -4.012755,5.40573 -5.67514,7.05087 -6.225292,6.16071 -0.790208,-1.27859 -2.018237,-19.33557 -2.089795,-30.72843 l -0.05848,-9.31056 -1.746581,0.27698 c -2.292459,0.36355 -17.292116,5.17044 -27.359353,8.76776 -9.3484687,3.34049 -10.0931867,3.54574 -10.0931867,2.78176 0,-0.81962 28.2116187,-28.81361 32.5133237,-32.2625 l 3.628868,-2.90944 2.57349,1.13811 c 1.41542,0.62597 4.31857,2.01553 6.451446,3.08792 21.616232,10.86843 44.378639,11.66545 69.831011,2.44513 5.90257,-2.13824 10.34516,-4.14403 10.34516,-4.67072 0,-0.15496 -0.82032,-1.07785 -1.82295,-2.05087 -4.25115,-4.1256 -8.79937,-20.87417 -13.00297,-47.88277 -2.72985,-17.539557 -3.6671,-22.070844 -5.91552,-28.599536 -3.22847,-9.37443 -7.881547,-17.03128 -13.622002,-22.41568 -6.97564,-6.54297 -13.126219,-8.70231 -24.787329,-8.70231 -14.007203,0 -24.371669,4.37233 -34.727951,14.65027 -7.567058,7.50982 -12.266166,15.1017 -15.690973,25.350332 -2.239128,6.700527 -3.070507,11.914264 -3.418464,21.437834 l -0.294429,8.05849 -2.392114,-1.76963 c -3.4371357,-2.54272 -3.8725477,-2.61642 -5.7448217,-0.97255 -2.721976,2.38993 -3.171224,2.02483 -2.83727,-2.30581 0.762289,-9.88514 7.6928697,-28.992424 13.7386817,-37.876866 3.23325,-4.75133 7.793757,-10.02897 14.097246,-16.31403 12.052427,-12.01718 17.123085,-15.10457 47.128558,-28.69526 23.588428,-10.684149 41.875318,-18.180701 45.931938,-18.829379 4.86599,-0.778104 7.67321,1.315775 13.81293,10.302971 2.12613,3.112168 3.99292,5.841278 4.14844,6.064678 0.15551,0.22341 4.80307,-0.23637 10.32791,-1.02173 16.27476,-2.31346 19.7672,-2.5977 32.10933,-2.61332 8.94617,-0.0113 11.9977,0.1341 12.83595,0.61171 1.3564,0.77284 2.61073,3.57011 5.40273,12.04861 2.71068,8.23155 9.29123,30.32129 10.38177,34.84979 l 0.81796,3.3966 11.0029,-0.0517 c 6.05159,-0.0284 11.14072,0.0862 11.30918,0.25464 0.57649,0.57649 -0.89231,6.106742 -4.84331,18.235699 -2.17385,6.673367 -3.95245,12.453327 -3.95245,12.844357 0,0.7898 0.12518,0.78007 9.91295,-0.77068 7.46676,-1.183 13.55958,-1.64939 13.55958,-1.03794 0,0.60143 0.38471,0.4487 -11.61714,4.61205 -5.48572,1.90296 -11.77296,4.20459 -13.97164,5.11474 -2.19868,0.91014 -4.312,1.65481 -4.69628,1.65481 -0.96185,0 -0.89748,-1.3035 0.48683,-9.85846 0.64758,-4.00207 1.31151,-9.64692 1.47539,-12.544107 l 0.29797,-5.267617 -2.5357,0.251 c -6.02321,0.59623 -12.63074,1.66563 -15.67882,2.537577 -1.80656,0.5168 -3.6215,0.93962 -4.0332,0.93962 -0.543,0 -1.1721,-1.3857 -2.29108,-5.046587 -3.69586,-12.091422 -6.77528,-20.296752 -8.72032,-23.235912 -0.99068,-1.49701 -1.42188,-1.76233 -2.86423,-1.76233 -0.96187,0 -3.60464,0.83621 -6.09619,1.92891 l -4.39823,1.92892 -0.0276,2.17878 c -0.0151,1.19832 -0.2014,5.13631 -0.4139,8.75108 -0.21252,3.61477 -0.25083,6.722292 -0.0851,6.905612 0.16568,0.18332 2.47915,-0.60505 5.14103,-1.75193 7.70418,-3.319372 11.81635,-4.304022 11.81635,-2.829382 0,0.37467 -3.85536,3.468022 -8.56747,6.874112 -4.71212,3.40609 -8.91301,6.490467 -9.33533,6.854167 -0.70413,0.60639 -0.64056,0.9631 0.76594,4.298037 5.26932,12.49405 7.42222,22.60851 8.4336,39.62169 l 0.2721,4.57715 -15.01062,0 -15.01062,0 -0.28883,1.76044 c -1.31431,8.01085 -2.82964,11.3929 -6.35215,14.17729 -3.44729,2.72492 -5.93754,4.1005 -8.65871,4.78293 -1.29099,0.32377 -2.51214,0.7227 -2.71366,0.88651 -0.48435,0.39374 5.41747,6.09116 16.093,15.53567 10.11616,8.94964 16.73864,15.28424 16.36717,15.6557 -0.36535,0.36536 -2.39445,-0.5314 -12.4877,-5.5189 -9.36033,-4.62534 -17.66407,-8.56784 -21.42703,-10.17329 l -2.29043,-0.97719 0.29028,1.4514 c 0.15965,0.79828 2.07703,6.03095 4.26085,11.62817 7.05458,18.08127 9.63987,25.60397 9.01418,26.22966 -0.40311,0.40311 -3.53029,-1.77772 -17.65796,-12.31429 -18.47909,-13.78193 -21.63138,-15.95877 -22.07366,-15.24314 -0.20962,0.33918 -2.2129,6.76338 -4.45173,14.276 -5.403922,18.13341 -8.232492,25.63029 -9.670292,25.63029 -0.26645,0 -0.99313,-1.1502 -1.61485,-2.556 z"
     id="path3357"
     inkscape:connector-curvature="0" />
</svg>
